<svg xmlns="http://www.w3.org/2000/svg" xmlns:xlink="http://www.w3.org/1999/xlink" width="1587.333" height="424.61" viewBox="0 0 1587.333 424.61"><defs><clipPath id="clip-path"><path id="Trac&#xE9;_25" data-name="Trac&#xE9; 25" d="M98.481,212.374h0m-4.284-.425h0m0,0h0M35.316,156.227a.942.942,0,0,1,0,.273h0a1.033,1.033,0,0,1,.182-.273m10.634-1.276ZM81.1,14.645h0v.182h0M89.032,0a11.09,11.09,0,0,0-2.674.3,16.01,16.01,0,0,0-1.7.577,11.515,11.515,0,0,0-2.339,1.367,16.952,16.952,0,0,0-1.306,1.124A18.713,18.713,0,0,0,79.522,5.1a24.518,24.518,0,0,0-1.58,2.37,60.767,60.767,0,0,0-3.372,7.17c-.911,2.188-1.7,4.345-2.491,6.5-1.519,4.284-2.886,8.507-4.223,12.73C62.569,50.77,58.011,67.632,53.606,84.555s-8.416,34.12-12.153,50.891c-.517,2.127-1,4.223-1.519,6.289a406.541,406.541,0,0,1-12.913-44.51v-.243a1.975,1.975,0,0,0,0-.395A13.776,13.776,0,0,0,.528,104.152a392.54,392.54,0,0,0,17.136,51.316A74.5,74.5,0,0,0,25.5,169.383c.486.638,1.155,1.367,1.732,2.036l.911,1.033,1.276,1.155,1.306,1.094a17.86,17.86,0,0,0,1.853,1.246,16.224,16.224,0,0,0,2.066,1.094,28.107,28.107,0,0,0,2.826.972,14.494,14.494,0,0,0,3.281.456,14.159,14.159,0,0,0,3.555-.213,15.86,15.86,0,0,0,6.32-2.613,19.475,19.475,0,0,0,5.712-6.289,40.834,40.834,0,0,0,3.616-8.6c.79-2.461,1.367-4.77,1.914-7.049,1.094-4.527,1.975-8.841,2.826-13.156,3.4-17.2,6.654-33.937,10.512-50.769,2.279-10.117,4.618-20.265,7.14-30.383-.152,7.869-.334,15.8-.486,23.668-.395,17.348-.82,34.758-1,52.2s-.243,34.91.76,52.592c.3,4.436.638,8.872,1.215,13.4a64.442,64.442,0,0,0,3.038,14.28c.273.668.608,1.4.942,2.1a16.162,16.162,0,0,0,1.519,2.4c.365.456.76.881,1.155,1.306a13.583,13.583,0,0,0,1.823,1.367,8.841,8.841,0,0,0,5.378,1.185l1.428-.213,1.094-.425a12.728,12.728,0,0,0,1.944-1.033,17.076,17.076,0,0,0,2.248-2.066,25.342,25.342,0,0,0,2.583-3.585,111.929,111.929,0,0,0,6.076-12.518,482.385,482.385,0,0,1,21.481-46.85,245.8,245.8,0,0,1,65.171-77.87,85.74,85.74,0,0,1,21.541-12.487A23.972,23.972,0,0,1,231.648,65.2a12.153,12.153,0,0,1,8.75,5.5,37.462,37.462,0,0,1,3.98,11.333c.942,4.162,1.732,8.477,2.765,12.73a117.889,117.889,0,0,0,8.6,24.975,149.21,149.21,0,0,0,13.642,22.483,66.082,66.082,0,0,0,18.776,18.412,17.288,17.288,0,0,0,13.064,2.1,19.87,19.87,0,0,0,10.421-7.991,65.414,65.414,0,0,0,9.449-24.306A64.989,64.989,0,0,1,310.946,154.1a18.989,18.989,0,0,1-10.026,7.292,15.86,15.86,0,0,1-11.91-2.37,63.8,63.8,0,0,1-17.531-18.412,148.207,148.207,0,0,1-12.639-22.422,116.3,116.3,0,0,1-7.535-24.306c-.851-4.193-1.519-8.477-2.339-12.791a41.381,41.381,0,0,0-4.193-13.156,16.133,16.133,0,0,0-5.2-5.53l-1.61-1.033c-.577-.273-1.185-.486-1.793-.729l-1.793-.668a18.225,18.225,0,0,0-1.853-.334,29.593,29.593,0,0,0-14.189,1.428A92.059,92.059,0,0,0,194.672,73.86a253.938,253.938,0,0,0-70.093,78.387,481.916,481.916,0,0,0-23.546,47.063c-1.307,2.826-2.643,5.682-4.011,8.2-.456-2.37-.79-5.044-1.033-7.626-.365-4.1-.577-8.325-.7-12.548-.425-17.014.213-34.3.942-51.65s1.732-34.606,2.7-51.954,1.975-34.7,2.248-52.44c0-4.466,0-8.9-.213-13.7,0-1.185-.182-2.461-.3-3.767l-.395-1.975c-.182-.851-.243-1.458-.547-2.522-.152-.517-.273-.972-.486-1.55A19.479,19.479,0,0,0,98.177,5.5a12.154,12.154,0,0,0-1.519-2.005,12.493,12.493,0,0,0-.881-.911,12.609,12.609,0,0,0-1.944-1.306A10.33,10.33,0,0,0,89.093,0h0" transform="translate(0.005 0)" fill="none"></path></clipPath><linearGradient id="linear-gradient" x1="0.079" y1="0.5" x2="0.79" y2="0.367" gradientUnits="objectBoundingBox"><stop offset="0" stop-color="#c55f0c"></stop><stop offset="0.642" stop-color="#505984"></stop><stop offset="0.887" stop-color="#a3b4c6"></stop><stop offset="1" stop-color="#a1b8d0"></stop></linearGradient></defs><g id="Groupe_24" data-name="Groupe 24" transform="translate(-2056.448 760.855)"><g id="Groupe_23" data-name="Groupe 23" transform="translate(0 -231.855)"><path id="Trac&#xE9;_13" data-name="Trac&#xE9; 13" d="M236.823,269.3a4.717,4.717,0,0,1-.4,1.706c-8.028,11.942-14,31.761-25.89,32.965-19.217,1.957-39.638-5.62-59.206-10.486-9.282-2.308-4.566-10.737-3.111-16.156,3.362-12.443-.351-17.511-13.447-19.568A82.437,82.437,0,0,1,74.91,220.179a30.1,30.1,0,0,0-11.39-10.486C.952,176.477-11.29,112.856,9.03,49.435a11.54,11.54,0,0,1,2.057-4.716C15.5,40.3,11.84,25.3,22.477,31.372,30.154,35.737,45.959,38,38.583,57.513,23.531,97.653,23.782,137.09,57.8,169.7a36.477,36.477,0,0,0,9.383,7.627,97.74,97.74,0,0,1,37.43,31.46c19.819,25.489,48.97,24.636,78.423,19.066,3.613,10.035-1.856,19.066-2.559,28.6-.4,5.67-2.459,11.992,5.469,14.35,6.974,2.107,13.4,3.312,18.163-4.616s10.938-16.407,16.407-24.535c5.469,3.061,7.225,11.841,15.755,10.035a20.062,20.062,0,0,1,.7,2.86Z" transform="translate(2056.448 -408.677)" fill="#c55f0c"></path><path id="Trac&#xE9;_14" data-name="Trac&#xE9; 14" d="M219.849.014A233.9,233.9,0,0,1,355.174,41.243c3.787,2.577,14.492,6.957,7.372,11.7S351.791,76.082,337.3,66.548c-64.835-42.363-134.113-42.415-205.462-23.4A299.231,299.231,0,0,0,38.019,89.533,80.288,80.288,0,0,1,16.71,68.506C76.041,19.959,144.764-.3,219.849.014" transform="translate(2121.374 -528.997)" fill="#505984"></path><path id="Trac&#xE9;_15" data-name="Trac&#xE9; 15" d="M62.45,216.231c1.606-9.483,10.035-8.73,16.206-10.035,27.044-5.017,44.053-21.826,53.486-46.713,2.81-7.526,5.569-13.949,14.551-15.052,51.63-5.319,71.449-58.2,59.407-102.156a52.5,52.5,0,0,1-.853-6.874,53.085,53.085,0,0,1,27.3-6.974c18.464,57.35-4.114,122.627-65.227,141.593-7.928,2.408-10.436,8.078-13.8,14.1A101,101,0,0,1,85.029,235.1c-13.246,3.111-20.07,1.555-19.117-13.6,0-1.706-2.308-3.562-3.562-5.369Z" transform="translate(2306.936 -414.814)" fill="#a1b8d0"></path><path id="Trac&#xE9;_16" data-name="Trac&#xE9; 16" d="M60.377,149.319v-14.7a179.94,179.94,0,0,0,24.385,7.576A35.875,35.875,0,0,0,127.11,109.38,36.577,36.577,0,0,0,91.486,69.24,37.079,37.079,0,0,0,53.5,107.524a59.056,59.056,0,0,0,6.172,24.385c-8.53,1.756-10.286-7.024-15.755-10.035a97.986,97.986,0,0,0,.552-10.035C43.418,87.654,55.259,69.29,76.483,62.266s41.394,1.254,54.741,21.876a68.03,68.03,0,0,0,5.017,6.272h0c-.452,11.339,2.057,22.729-3.01,33.868a46.261,46.261,0,0,1-57,25.99C71.065,148.315,65.9,144.251,60.377,149.319Z" transform="translate(2232.894 -288.696)" fill="#c55f0c"></path><path id="Trac&#xE9;_17" data-name="Trac&#xE9; 17" d="M70.508,14.938A79.025,79.025,0,0,0,91.682,35.409c1.154,6.774,2.86,13.5,3.362,20.07A45.157,45.157,0,0,1,50.84,104.9a46.01,46.01,0,1,1,2.509-91.82C59.068,13.734,64.788,14.386,70.508,14.938ZM48.933,21.711A38.283,38.283,0,0,0,11.754,59.944,38.584,38.584,0,0,0,48.783,96.672a38.384,38.384,0,0,0,38.233-37.48A38.233,38.233,0,0,0,48.933,21.711Z" transform="translate(2069.781 -477.138)" fill="#505984"></path><path id="Trac&#xE9;_18" data-name="Trac&#xE9; 18" d="M157.308,98.2a53.085,53.085,0,0,0-27.295,6.974c-32.764-6.573-48.619-21.726-48.87-46.763a45.759,45.759,0,0,1,80.279-31.61,47.716,47.716,0,0,1,6.422,51.83C164.683,85.36,157.709,90.026,157.308,98.2Zm7.225-40.993A39.287,39.287,0,0,0,126.45,19.581c-18.615.3-37.33,18.665-37.531,36.878a39.237,39.237,0,0,0,39.237,38.133c19.217-.8,36.778-18.866,36.377-37.38Z" transform="translate(2382.322 -484.591)" fill="#9ab8d9"></path><path id="Trac&#xE9;_29" data-name="Trac&#xE9; 29" d="M40.792,0A40.792,40.792,0,1,1,0,40.792,40.792,40.792,0,0,1,40.792,0Z" transform="translate(2281.33 -222.717)" fill="#c55f0c"></path><path id="Trac&#xE9;_28" data-name="Trac&#xE9; 28" d="M39.136,0A39.136,39.136,0,1,1,0,39.136,39.136,39.136,0,0,1,39.136,0Z" transform="translate(2470.087 -465.663)" fill="#a1b8d0"></path><path id="Trac&#xE9;_30" data-name="Trac&#xE9; 30" d="M39.638,0C61.529,0,79.276,17.994,79.276,40.19S61.529,80.38,39.638,80.38,0,62.386,0,40.19,17.746,0,39.638,0Z" transform="translate(2078.574 -459.792)" fill="#505984"></path><path id="Trac&#xE9;_27" data-name="Trac&#xE9; 27" d="M20.79-198.45h86.94v26.46H50.76v54.81h45.9v27H50.76v63.45h65.88V0H20.79ZM145.8-123.93h28.08v22.95q14.85-26.19,46.44-26.19,26.19,0,42.39,16.6t16.2,47.925q0,19.44-7.965,34.29a57.8,57.8,0,0,1-21.6,22.95A58.346,58.346,0,0,1,218.97,2.7q-15.66,0-27.135-5.535a42.61,42.61,0,0,1-17.955-15.8l.27,84.24H145.8ZM212.22-21.87q17.55,0,27-11.2t9.45-28.755q0-18.36-9.315-29.295T212.22-102.06A36.939,36.939,0,0,0,194-97.335a34.758,34.758,0,0,0-13.5,13.5,40.493,40.493,0,0,0-5,20.385v1.89a42.013,42.013,0,0,0,5,20.655,36.521,36.521,0,0,0,13.365,14.04A35.166,35.166,0,0,0,212.22-21.87Zm99.9-102.06h30.24V0H312.12Zm14.85-23.22a19.068,19.068,0,0,1-14.04-5.67,19.068,19.068,0,0,1-5.67-14.04,17.266,17.266,0,0,1,5.67-12.96,19.572,19.572,0,0,1,14.04-5.4,19.233,19.233,0,0,1,13.77,5.4,17.266,17.266,0,0,1,5.67,12.96,19.311,19.311,0,0,1-5.535,14.04A18.624,18.624,0,0,1,326.97-147.15Z" transform="translate(2618.403 -170.971)" fill="#c55f0c"></path><path id="Trac&#xE9;_26" data-name="Trac&#xE9; 26" d="M111.24,1.89q-30.78,0-53.325-13.77A91.624,91.624,0,0,1,23.49-48.735Q11.61-71.82,11.61-99.63q0-29.43,12.825-52.65A92.025,92.025,0,0,1,60.48-188.6q23.22-13.095,52.65-13.1a102.791,102.791,0,0,1,24.705,2.835,99.191,99.191,0,0,1,19.035,6.48q7.56,3.645,9.99,6.075l-13.23,27q-16.47-14.58-42.93-14.58a63.757,63.757,0,0,0-33.75,9.18q-15.12,9.18-23.76,26.19T44.55-99.09q0,20.52,7.695,37.26A61.67,61.67,0,0,0,74.79-35.37q14.85,9.72,35.37,9.72,23.76,0,45.9-13.5l8.91,25.65q-5.94,5.4-21.735,10.395A105.533,105.533,0,0,1,111.24,1.89ZM271.62-198.72,367.2,0H332.37L315.36-38.88H224.37L207.36,0H173.61l95.04-198.72Zm-13.5,84.51-21.6,48.06h66.96l-21.33-47.79-11.61-27.27H270ZM485.73,0,445.77-75.06q-12.42.54-22.14.54h-7.56V0H386.64V-198.45h45.09q34.29,0,56.43,14.175T510.3-138.24q0,19.98-9.315,34.425T473.31-81.54L520.56,0ZM435.24-99.09q26.46,0,36.315-11.475t9.855-27.405q0-35.37-47.25-35.37H416.07v74.25Zm118.53-99.36h86.94v26.46H583.74v54.81h45.9v27h-45.9v63.45h65.88V0H553.77Z" transform="translate(2994.161 -170.82)" fill="#505984"></path><g id="courbe-epicare-01" transform="translate(2157.85 -446.65)" clip-path="url(#clip-path)"><rect id="Rectangle_58" data-name="Rectangle 58" width="322.632" height="224.223" transform="translate(-1.533 0)" fill="url(#linear-gradient)"></rect></g></g></g></svg>