<?xml version="1.0" encoding="UTF-8"?>
<svg width="254.771973px" height="60px" viewBox="0 0 254.771973 60" version="1.1" xmlns="http://www.w3.org/2000/svg" xmlns:xlink="http://www.w3.org/1999/xlink">
    <title>logo-imim-nova-versio</title>
    <g id="Page-1" stroke="none" stroke-width="1" fill="none" fill-rule="evenodd">
        <g id="IMIM---Web" transform="translate(-524.000000, -35.000000)" fill-rule="nonzero">
            <g id="logo-imim-nova-versio" transform="translate(524.000000, 35.000000)">
                <path d="M227.235418,38.7334251 C226.454605,38.7334251 226.015506,38.1723064 226.015506,37.1715093 L226.015506,30.9487718 L229.236722,30.9487718 L229.236722,28.5567712 L226.015506,28.5567712 L226.015506,24.6031447 L223.208753,25.8233461 L223.208753,28.5564814 L221.256721,28.5564814 L221.256721,30.948482 L223.208753,30.948482 L223.208753,37.4642417 C223.208753,39.7826244 224.45388,41.0761539 226.698935,41.0761539 C228.211869,41.0761539 229.285704,40.5393812 229.993479,39.7342222 L228.529237,38.1963626 C228.187523,38.5140207 227.77277,38.7334251 227.235708,38.7334251 L227.235418,38.7334251 Z" id="Path" fill="#0033A1"></path>
                <path d="M88.5043113,28.2153467 C84.9897833,28.2153467 82.4519962,30.8997899 82.4519962,34.7311064 C82.4519962,38.611405 85.2094776,41.0761539 88.6750235,41.0761539 C91.0177523,41.0761539 92.8483443,39.9292805 93.8488515,38.1963626 L92.0669517,36.9518151 C91.3348308,38.0502862 90.1636113,38.7821172 88.7237157,38.7821172 C86.8690675,38.7821172 85.2825158,37.5622056 85.1604956,35.3898993 L94.0682559,35.3898993 C94.6293747,31.5829288 92.3599739,28.2153467 88.5040214,28.2153467 L88.5043113,28.2153467 Z M85.2587494,33.3888849 C85.4294616,31.5829288 86.7473371,30.4114195 88.4556192,30.4114195 C90.1395551,30.4114195 91.3107746,31.6072748 91.4817767,33.3888849 L85.2590392,33.3888849 L85.2587494,33.3888849 Z" id="Shape" fill="#0033A1"></path>
                <path d="M112.516484,35.3898993 C112.516484,32.1443374 113.517281,30.8267517 115.249909,30.8267517 C115.713064,30.8267517 116.079415,30.9241359 116.372437,31.0705021 L117.324542,28.7521194 C116.860517,28.459387 116.275053,28.2886747 115.591624,28.2886747 C114.298094,28.2886747 113.200203,28.9228317 112.516484,30.4847475 L112.516484,28.5567712 L109.710021,28.5567712 L109.710021,40.8321136 L112.516484,40.8321136 L112.516484,35.3898993 Z" id="Path" fill="#0033A1"></path>
                <rect id="Rectangle" fill="#0033A1" x="193.095283" y="23.5782914" width="2.97717557" height="2.8064633"></rect>
                <path d="M104.12231,38.9528295 L104.12231,40.8321136 L106.684733,40.8321136 L106.684733,33.2178828 C106.684733,30.2407072 104.708065,28.2153467 101.437867,28.2153467 C98.6067676,28.2153467 96.5811173,29.947685 96.1173828,32.4370698 L98.3380914,33.0958626 C98.826172,31.5098906 99.7049489,30.6557496 101.315557,30.6557496 C102.828491,30.6557496 103.829288,31.655967 103.902326,33.2668647 L100.656474,33.8279835 C97.8743569,34.3160641 96.5324252,35.4875734 96.5324252,37.4639519 C96.5324252,39.6359684 98.1427433,41.0758641 100.461126,41.0758641 C102.120716,41.0758641 103.389609,40.3193971 104.12173,38.9525397 L104.12231,38.9528295 Z M99.3391783,37.5372799 C99.3391783,36.4880806 100.144337,35.9756539 101.559597,35.7072676 L103.902616,35.2432432 L103.902616,35.6582856 C103.902616,37.6103181 102.731106,39.0991957 101.095863,39.0991957 C100.071009,39.0991957 99.3388885,38.5134411 99.3388885,37.5372799 L99.3391783,37.5372799 Z" id="Shape" fill="#0033A1"></path>
                <path d="M123.986668,30.6064778 C125.499601,30.6064778 126.427071,31.3629447 126.939497,32.7784943 L129.355554,32.0710093 C128.672415,29.7039345 126.817477,28.2153467 123.986668,28.2153467 C120.423448,28.2153467 117.836679,30.948482 117.836679,34.8287805 C117.836679,38.538077 120.228389,41.0761539 123.986668,41.0761539 C126.671111,41.0761539 128.647779,39.5875661 129.477574,37.3422216 L127.256865,36.5614086 C126.573437,37.9526121 125.597276,38.684733 123.986668,38.684733 C122.058691,38.684733 120.643142,37.0251431 120.643142,34.6580683 C120.643142,32.2663575 122.082748,30.6070575 123.986668,30.6070575 L123.986668,30.6064778 Z" id="Path" fill="#0033A1"></path>
                <path d="M80.5735816,37.1712195 C80.5735816,32.0463735 73.5694515,34.4867763 73.5694515,31.729295 C73.5694515,30.875154 74.3992464,30.3137454 75.5953916,30.3137454 C76.8642852,30.3137454 77.6937903,31.0461561 78.0844866,32.0953554 L80.2321571,31.3878704 C79.7194406,29.4598942 78.1091225,28.2153467 75.8150859,28.2153467 C73.0083327,28.2153467 71.0316644,29.6549525 71.0316644,31.9976813 C71.0316644,37.2204913 77.9627563,34.8287805 77.9627563,37.4888776 C77.9627563,38.3673647 77.0839794,38.9284834 75.6687197,38.9284834 C74.0824578,38.9284834 73.0326788,38.0989783 72.6179262,36.7564669 L70.4948917,37.4639519 C71.0073183,39.7823346 72.8619665,41.0758641 75.4733715,41.0758641 C78.475183,41.0758641 80.5741613,39.5626404 80.5741613,37.1712195 L80.5735816,37.1712195 Z" id="Path" fill="#0033A1"></path>
                <path d="M54.8287805,28.6785016 C54.8287805,25.6769799 52.607782,23.7490037 49.191218,23.7490037 L42.0163756,23.7490037 L42.0163756,40.8321136 L44.920513,40.8321136 L44.920513,34.0720238 L47.7023404,34.0720238 C49.8743569,34.0720238 50.9481922,34.9018187 51.3875806,37.0248533 L52.1927397,40.8321136 L55.145859,40.8321136 L54.169408,36.2686762 C53.8033476,34.6090863 53.0225346,33.6572712 51.6556771,33.1691906 C53.6323455,32.4619955 54.8284907,30.8508079 54.8284907,28.6787914 L54.8287805,28.6785016 Z M49.0935439,31.5339468 L44.920513,31.5339468 L44.920513,26.3357728 L49.1181798,26.3357728 C50.8021158,26.3357728 51.9002971,27.4342439 51.9002971,28.9471777 C51.9002971,30.4601116 50.8021158,31.5339468 49.0938338,31.5339468 L49.0935439,31.5339468 Z" id="Shape" fill="#0033A1"></path>
                <path d="M236.826317,28.2153467 C233.312079,28.2153467 230.774002,30.8997899 230.774002,34.7311064 C230.774002,38.611405 233.531483,41.0761539 236.997029,41.0761539 C239.339758,41.0761539 241.17006,39.9292805 242.170567,38.1963626 L240.388957,36.9518151 C239.656836,38.0502862 238.485617,38.7821172 237.045721,38.7821172 C235.191073,38.7821172 233.604521,37.5622056 233.482501,35.3898993 L242.389972,35.3898993 C242.95138,31.5829288 240.68169,28.2153467 236.826027,28.2153467 L236.826317,28.2153467 Z M233.580465,33.3888849 C233.751467,31.5829288 235.069343,30.4114195 236.777625,30.4114195 C238.461271,30.4114195 239.63278,31.6072748 239.803782,33.3888849 L233.580755,33.3888849 L233.580465,33.3888849 Z" id="Shape" fill="#0033A1"></path>
                <path d="M68.518803,38.1960727 L66.737193,36.9515253 C66.0047823,38.0499964 64.8335628,38.7818274 63.3936671,38.7818274 C61.5390189,38.7818274 59.952757,37.5619158 59.8304471,35.3896094 L68.7382074,35.3896094 C69.2993261,31.5826389 67.0299254,28.2150569 63.1739729,28.2150569 C59.6597348,28.2150569 57.1216579,30.8995 57.1216579,34.7308166 C57.1216579,38.6111151 59.8791392,41.0758641 63.3446852,41.0758641 C65.687414,41.0758641 67.5177161,39.9289907 68.5185132,38.1960727 L68.518803,38.1960727 Z M63.1252808,30.4111296 C64.8092167,30.4111296 65.9804362,31.606985 66.1511485,33.388595 L59.928411,33.388595 C60.0991233,31.5826389 61.4169988,30.4111296 63.1252808,30.4111296 Z" id="Shape" fill="#0033A1"></path>
                <path d="M216.52315,34.1453518 C216.52315,37.2204913 215.058329,38.6844432 213.301645,38.6844432 C211.788421,38.6844432 210.909934,37.6106079 210.909934,35.9513079 L210.909934,28.5564814 L208.103471,28.5564814 L208.103471,36.2927324 C208.103471,39.2455619 209.909427,41.0758641 212.520542,41.0758641 C214.302152,41.0758641 215.66843,40.246359 216.522861,38.7087892 L216.522861,40.8318238 L219.329324,40.8318238 L219.329324,28.5564814 L216.522861,28.5564814 L216.522861,34.145062 L216.52315,34.1453518 Z" id="Path" fill="#0033A1"></path>
                <path d="M203.881748,38.7334251 C203.100935,38.7334251 202.661836,38.1723064 202.661836,37.1715093 L202.661836,30.9487718 L205.882762,30.9487718 L205.882762,28.5567712 L202.661836,28.5567712 L202.661836,24.6031447 L199.855083,25.8233461 L199.855083,28.5564814 L197.902761,28.5564814 L197.902761,30.948482 L199.855083,30.948482 L199.855083,37.4642417 C199.855083,39.7826244 201.09992,41.0761539 203.344975,41.0761539 C204.857909,41.0761539 205.931744,40.5393812 206.639519,39.7342222 L205.175277,38.1963626 C204.833853,38.5140207 204.41881,38.7334251 203.882038,38.7334251 L203.881748,38.7334251 Z" id="Path" fill="#0033A1"></path>
                <rect id="Rectangle" fill="#0033A1" x="151.536845" y="23.7490037" width="2.90413738" height="17.0831099"></rect>
                <path d="M138.7256,28.2153467 C137.017607,28.2153467 135.626404,28.9961597 134.747917,30.5334396 L134.747917,23.7490037 L131.941454,23.7490037 L131.941454,40.8321136 L134.747917,40.8321136 L134.747917,34.8287805 C134.747917,31.9489892 136.236505,30.6064778 137.944787,30.6064778 C139.482356,30.6064778 140.409825,31.680313 140.409825,33.4132309 L140.409825,40.8321136 L143.216289,40.8321136 L143.216289,33.0474603 C143.216289,30.2163611 141.532353,28.2153467 138.7256,28.2153467 L138.7256,28.2153467 Z" id="Path" fill="#0033A1"></path>
                <path d="M164.592711,28.2153467 C162.884718,28.2153467 161.517861,28.9715238 160.66372,30.4601116 L160.66372,28.5564814 L157.857257,28.5564814 L157.857257,40.8318238 L160.66372,40.8318238 L160.66372,34.8284907 C160.66372,31.9486994 162.152308,30.606188 163.86059,30.606188 C165.39816,30.606188 166.325339,31.6800232 166.325339,33.4129411 L166.325339,40.8318238 L169.132092,40.8318238 L169.132092,33.0471705 C169.132092,30.0697051 167.30179,28.2150569 164.592711,28.2150569 L164.592711,28.2153467 Z" id="Path" fill="#0033A1"></path>
                <path d="M188.654155,38.7334251 C187.873343,38.7334251 187.434244,38.1723064 187.434244,37.1715093 L187.434244,30.9487718 L190.65546,30.9487718 L190.65546,28.5567712 L187.434244,28.5567712 L187.434244,24.6031447 L184.627491,25.8233461 L184.627491,28.5564814 L182.675458,28.5564814 L182.675458,30.948482 L184.627491,30.948482 L184.627491,37.4642417 C184.627491,39.7826244 185.872328,41.0761539 188.117673,41.0761539 C189.630606,41.0761539 190.704152,40.5393812 191.411927,39.7342222 L189.947975,38.1963626 C189.60626,38.5140207 189.191508,38.7334251 188.654445,38.7334251 L188.654155,38.7334251 Z" id="Path" fill="#0033A1"></path>
                <rect id="Rectangle" fill="#0033A1" x="193.192957" y="28.5564814" width="2.8064633" height="12.2753424"></rect>
                <path d="M174.402435,31.729295 C174.402435,30.875154 175.232519,30.3137454 176.428375,30.3137454 C177.697268,30.3137454 178.527063,31.0461561 178.91747,32.0953554 L181.06514,31.3878704 C180.552714,29.4598942 178.941816,28.2153467 176.647779,28.2153467 C173.841316,28.2153467 171.864647,29.6549525 171.864647,31.9976813 C171.864647,37.2204913 178.79545,34.8287805 178.79545,37.4888776 C178.79545,38.3673647 177.916673,38.9284834 176.501413,38.9284834 C174.915151,38.9284834 173.865952,38.0989783 173.45062,36.7564669 L171.327875,37.4639519 C171.840301,39.7823346 173.69495,41.0758641 176.306355,41.0758641 C179.307876,41.0758641 181.406855,39.5626404 181.406855,37.1712195 C181.406855,32.0463735 174.402435,34.4867763 174.402435,31.729295 Z" id="Path" fill="#0033A1"></path>
                <path d="M116.335048,49.3529454 C114.811101,49.3529454 113.632635,50.0639084 112.901094,51.425259 L112.901094,49.5966959 L111.072241,49.5966959 L111.072241,59.7968263 L112.901094,59.7968263 L112.901094,54.9609449 C112.901094,52.258532 114.242156,50.8971814 115.908123,50.8971814 C117.371205,50.8971814 118.265343,51.9127599 118.265343,53.579016 L118.265343,59.7965365 L120.093906,59.7965365 L120.093906,53.3552641 C120.093906,50.8763133 118.590537,49.3526556 116.335048,49.3526556 L116.335048,49.3529454 Z" id="Path" fill="#0033A1"></path>
                <path d="M76.6556047,58.4557641 C74.8067531,58.4557641 73.4454025,56.9115282 73.4454025,54.6763278 C73.4454025,52.4211289 74.8067531,50.8971814 76.6356061,50.8971814 C78.0578219,50.8971814 78.9925368,51.6487211 79.4397507,53.0303601 L81.0245634,52.5425694 C80.4353308,50.5719875 78.9113832,49.3526556 76.6558945,49.3526556 C73.7503079,49.3526556 71.6168394,51.5875661 71.6168394,54.7774799 C71.6168394,57.9065285 73.648866,59.9997102 76.6358959,59.9997102 C78.8099413,59.9997102 80.4353308,58.7806681 81.1262952,56.9112383 L79.6632128,56.3625824 C79.07427,57.7242229 78.1192667,58.4554742 76.6561843,58.4554742 L76.6556047,58.4557641 Z" id="Path" fill="#0033A1"></path>
                <path d="M49.9595681,52.3799725 C51.2397652,51.8110282 51.991305,50.693428 51.991305,49.2512137 C51.991305,47.0565901 50.223607,45.5735092 47.5823491,45.5735092 L41.7303094,45.5735092 L41.7303094,59.7968263 L47.8663865,59.7968263 C50.6093761,59.7968263 52.3770741,58.2117238 52.3770741,55.8547931 C52.3770741,54.1682487 51.482936,52.9289182 49.9592783,52.3799725 L49.9595681,52.3799725 Z M43.6606043,47.219187 L47.5411927,47.219187 C49.0854286,47.219187 50.0810086,48.1130353 50.0810086,49.4540975 C50.0810086,50.7751612 49.0854286,51.6895877 47.5411927,51.6895877 L43.6606043,51.6895877 L43.6606043,47.2194768 L43.6606043,47.219187 Z M47.7443664,58.1508586 L43.6606043,58.1508586 L43.6606043,53.294399 L47.7037896,53.294399 C49.4106224,53.294399 50.4670676,54.2494022 50.4670676,55.7124846 C50.4670676,57.175567 49.4309108,58.1508586 47.7443664,58.1508586 L47.7443664,58.1508586 Z" id="Shape" fill="#0033A1"></path>
                <path d="M58.4722846,49.3529454 C56.1762191,49.3529454 54.5302514,50.7548728 54.1441924,52.8068981 L55.6275632,53.254112 C56.0342004,51.7707413 56.8871821,50.9783349 58.3908412,50.9783349 C59.874212,50.9783349 60.8292153,51.9127599 60.8900804,53.4775741 L58.106514,54.0059416 C55.5866966,54.4731541 54.509963,55.4687341 54.509963,57.0944134 C54.509963,58.8624013 55.8310267,60 57.720455,60 C59.2241142,60 60.3417144,59.2887472 60.9915224,58.0085501 L60.9915224,59.7968263 L62.6983552,59.7968263 L62.6983552,53.4572857 C62.6983552,50.9986233 61.0523875,49.3529454 58.4719948,49.3529454 L58.4722846,49.3529454 Z M60.8900804,55.2049851 C60.8900804,57.2161438 59.7116151,58.6383595 58.0659373,58.6383595 C57.0700674,58.6383595 56.338816,58.0899935 56.338816,57.114412 C56.338816,56.118832 57.0906456,55.6107528 58.7569017,55.285559 L60.8900804,54.8997899 L60.8900804,55.2046953 L60.8900804,55.2049851 Z" id="Shape" fill="#0033A1"></path>
                <path d="M67.1473082,51.3235273 L67.1473082,49.5966959 L65.3184552,49.5966959 L65.3184552,59.7968263 L67.1473082,59.7968263 L67.1473082,55.4281574 C67.1473082,52.258532 68.0411564,51.0800667 69.5445258,51.0800667 C69.9105862,51.0800667 70.2152018,51.1612202 70.4589522,51.2832403 L71.0887617,49.7592928 C70.7435693,49.5561191 70.276067,49.4138106 69.7479893,49.4138106 C68.6303891,49.4138106 67.7159626,49.9624665 67.1473082,51.3238171 L67.1473082,51.3235273 Z" id="Path" fill="#0033A1"></path>
                <rect id="Rectangle" fill="#0033A1" x="94.5140207" y="45.5735092" width="1.82856315" height="14.2233172"></rect>
                <path d="M126.554597,49.3529454 C124.258532,49.3529454 122.612564,50.7548728 122.226795,52.8068981 L123.710166,53.254112 C124.116513,51.7707413 124.969785,50.9783349 126.473444,50.9783349 C127.956815,50.9783349 128.911528,51.9127599 128.972393,53.4775741 L126.188827,54.0059416 C123.669299,54.4731541 122.592566,55.4687341 122.592566,57.0944134 C122.592566,58.8624013 123.91334,60 125.802768,60 C127.306137,60 128.424027,59.2887472 129.074415,58.0085501 L129.074415,59.7968263 L130.780958,59.7968263 L130.780958,53.4572857 C130.780958,50.9986233 129.13499,49.3529454 126.554597,49.3529454 Z M128.972393,55.2049851 C128.972393,57.2161438 127.794218,58.6383595 126.14825,58.6383595 C125.15238,58.6383595 124.420839,58.0899935 124.420839,57.114412 C124.420839,56.118832 125.172669,55.6107528 126.838635,55.285559 L128.972103,54.8997899 L128.972103,55.2046953 L128.972393,55.2049851 Z" id="Shape" fill="#0033A1"></path>
                <path d="M103.758858,49.3529454 C100.812405,49.3529454 98.6383595,51.587856 98.6383595,54.6966162 C98.6383595,57.8053764 100.812405,59.9997102 103.73857,59.9997102 C106.684733,59.9997102 108.859068,57.7645098 108.859068,54.6557496 C108.859068,51.5469893 106.684733,49.3529454 103.758858,49.3529454 L103.758858,49.3529454 Z M103.758858,58.4557641 C101.848852,58.4557641 100.467213,56.9115282 100.467213,54.6763278 C100.467213,52.4411275 101.828563,50.8971814 103.73857,50.8971814 C105.648576,50.8971814 107.030215,52.4414173 107.030215,54.6763278 C107.030215,56.9112383 105.668865,58.4557641 103.758858,58.4557641 L103.758858,58.4557641 Z" id="Shape" fill="#0033A1"></path>
                <path d="M87.6678502,49.3529454 C84.782552,49.3529454 82.6893703,51.5472792 82.6893703,54.7171944 C82.6893703,57.9479748 84.9651475,60 87.7895805,60 C89.7604521,60 91.2641113,58.9635534 92.076806,57.4804724 L90.8374755,56.7080646 C90.2276647,57.785088 89.1712195,58.496051 87.8304471,58.496051 C86.1033258,58.496051 84.5999565,57.3378741 84.4776465,55.1026737 L92.1988262,55.1026737 C92.5037316,51.9124701 90.7766104,49.3526556 87.6678502,49.3526556 L87.6678502,49.3529454 Z M84.5388015,53.6807478 C84.721397,51.9742048 85.9813057,50.815738 87.6269836,50.815738 C89.2726614,50.815738 90.3499746,51.9942033 90.4919933,53.6807478 L84.5388015,53.6807478 L84.5388015,53.6807478 Z" id="Shape" fill="#0033A1"></path>
                <polygon id="Path" fill="#0033A1" points="12.3460619 12.3095428 0 12.3095428 0 17.1457141 12.3460619 17.1457141 17.1822332 17.1457141 17.1822332 12.3095428 17.1822332 0.12317948 12.3460619 0.12317948"></polygon>
                <path d="M24.0115934,0.439968118 L24.0107239,0.12607782 L19.1844069,0.12607782 L19.1844069,0.865154699 C19.3029491,5.23208463 21.0955728,9.3236722 24.2321571,12.3872183 C27.3745381,15.4562713 31.5182958,17.1500616 35.9000072,17.1558583 L36.2150569,17.1564379 L36.2150569,12.3193971 L35.9008767,12.3188175 C29.3630896,12.3066444 24.0295631,6.97775524 24.0115934,0.440257952 L24.0115934,0.439968118 Z" id="Path" fill="#0033A1"></path>
                <polygon id="Path" fill="#0033A1" points="19.0331135 19.0099268 19.0331135 23.8463879 19.0331135 36.0330411 23.8692848 36.0330411 23.8692848 23.8463879 36.2153467 23.8463879 36.2153467 19.0099268 23.8692848 19.0099268"></polygon>
                <path d="M0.315049634,19.0029708 L0,19.0029708 C0,19.0029708 0,23.8397218 0,23.8397218 L0.314180132,23.8403014 C6.85167741,23.8524745 12.185204,29.1810738 12.2034635,35.718861 L12.204333,36.0327512 L17.0303601,36.0327512 L17.0303601,35.2936744 C16.9121078,30.9267444 15.1194841,26.8351569 11.9828998,23.7716108 C8.8405188,20.7025578 4.6967611,19.0087675 0.315049634,19.002681 L0.315049634,19.0029708 Z" id="Path" fill="#0033A1"></path>
                <rect id="Rectangle" fill="#0033A1" x="100.286936" y="0" width="2.97253822" height="2.80211579"></rect>
                <rect id="Rectangle" fill="#0033A1" x="100.38432" y="4.9706543" width="2.80211579" height="12.2559235"></rect>
                <path d="M208.498225,17.2265778 L211.05659,17.2265778 L211.05659,9.62451996 C211.05659,6.65198174 209.08311,4.62980943 205.818129,4.62980943 C202.991667,4.62980943 200.969205,6.35953916 200.50634,8.84515615 L202.723571,9.50278965 C203.211072,7.91913629 204.08811,7.06644446 205.696109,7.06644446 C207.206724,7.06644446 208.206072,8.0655025 208.27911,9.67379175 L205.038475,10.234041 C202.260416,10.7215419 200.920513,11.8907326 200.920513,13.8645026 C200.920513,16.0330411 202.528512,17.4706181 204.843417,17.4706181 C206.500688,17.4706181 207.767553,16.7153105 208.498225,15.3507717 L208.498225,17.2268676 L208.498225,17.2265778 Z M208.27911,12.0608652 C208.27911,14.0102891 207.10934,15.4968481 205.476994,15.4968481 C204.45359,15.4968481 203.722629,14.9119629 203.722629,13.9372509 C203.722629,12.8892109 204.526629,12.3776538 205.939859,12.1095573 L208.2794,11.6469821 L208.2794,12.0608652 L208.27911,12.0608652 Z" id="Shape" fill="#0033A1"></path>
                <path d="M75.9939135,8.13825085 C75.9939135,7.28555902 76.8222593,6.72501993 78.0160858,6.72501993 C79.2832403,6.72501993 80.1115861,7.45569162 80.5014129,8.50344178 L82.6456054,7.79711615 C82.1340483,5.87174842 80.525759,4.6295196 78.2354902,4.6295196 C75.4333744,4.6295196 73.4596044,6.06680675 73.4596044,8.40605753 C73.4596044,13.6201725 80.3796826,11.2322295 80.3796826,13.888269 C80.3796826,14.7655967 79.5023549,15.325846 78.0894138,15.325846 C76.5054706,15.325846 75.4577205,14.4975002 75.0435476,13.1573074 L72.9237012,13.8639229 C73.4355481,16.1785378 75.287298,17.4700384 77.8946453,17.4700384 C80.8915296,17.4700384 82.9870299,15.9594232 82.9870299,13.5714803 C82.9870299,8.45474966 75.9942033,10.8913847 75.9942033,8.13796102 L75.9939135,8.13825085 Z" id="Path" fill="#0033A1"></path>
                <polygon id="Path" fill="#0033A1" points="44.9016738 9.84392435 53.0642707 9.84392435 53.0642707 17.2265778 55.9881168 17.2265778 55.9881168 0.170422433 53.0642707 0.170422433 53.0642707 7.23657706 44.9016738 7.23657706 44.9016738 0.170422433 42.0021738 0.170422433 42.0021738 17.2265778 44.9016738 17.2265778"></polygon>
                <path d="M88.323165,15.472502 C89.1758568,16.7390769 90.4914137,17.4703282 92.2704152,17.4703282 C95.5356858,17.4703282 97.8746468,14.8879067 97.8746468,11.013115 C97.8746468,7.23657706 95.535396,4.6295196 92.2704152,4.6295196 C90.4917035,4.6295196 89.1761467,5.33584523 88.323165,6.62734584 L88.323165,4.9706543 L85.5210492,4.9706543 L85.5210492,22.0998478 L88.323165,22.0998478 L88.323165,15.472502 L88.323165,15.472502 Z M91.7098761,7.01717267 C93.7079922,7.01717267 95.0965872,8.67386421 95.0965872,11.0618071 C95.0965872,13.425404 93.7079922,15.0820955 91.7098761,15.0820955 C89.6877038,15.0820955 88.323165,13.425404 88.323165,11.0618071 C88.323165,8.67386421 89.6877038,7.01717267 91.7098761,7.01717267 Z" id="Shape" fill="#0033A1"></path>
                <path d="M64.9555829,17.4703282 C68.5616984,17.4703282 71.2417941,14.7169046 71.2417941,11.013115 C71.2417941,7.30932541 68.5616984,4.6295196 65.0042751,4.6295196 C61.3978697,4.6295196 58.7177741,7.38265343 58.7177741,11.086443 C58.7177741,14.7902326 61.3978697,17.4703282 64.9555829,17.4703282 Z M64.9555829,7.01717267 C66.9777552,7.01717267 68.4396783,8.64951815 68.4396783,11.0618071 C68.4396783,13.44975 67.0264474,15.0820955 65.0042751,15.0820955 C62.9821027,15.0820955 61.5198899,13.44975 61.5198899,11.0374611 C61.5198899,8.64951815 62.9331208,7.01717267 64.9555829,7.01717267 Z" id="Shape" fill="#0033A1"></path>
                <polygon id="Path" fill="#0033A1" points="188.639664 14.2296935 183.91247 0.170422433 179.673067 0.170422433 179.673067 17.2265778 182.474893 17.2265778 182.474893 3.48438519 187.153395 17.2265778 190.077241 17.2265778 194.828781 3.38671111 194.828781 17.2265778 197.654953 17.2265778 197.654953 0.170422433 193.41526 0.170422433"></polygon>
                <rect id="Rectangle" fill="#0033A1" x="168.342874" y="0.170422433" width="2.80211579" height="17.0561554"></rect>
                <path d="M219.950728,4.70255779 C218.659517,4.70255779 217.563075,5.33613506 216.880806,6.89573219 L216.880806,4.9706543 L214.07869,4.9706543 L214.07869,17.2265778 L216.880806,17.2265778 L216.880806,11.7930585 C216.880806,8.55242374 217.879864,7.23657706 219.609883,7.23657706 C220.073038,7.23657706 220.438229,7.33425114 220.730672,7.48032751 L221.681038,5.16571263 C221.218173,4.87327005 220.633287,4.70284762 219.950728,4.70284762 L219.950728,4.70255779 Z" id="Path" fill="#0033A1"></path>
                <path d="M148.678212,6.48155931 C147.874502,5.28744294 146.607057,4.62980943 144.901674,4.62980943 C141.417289,4.62980943 139.12673,7.28555902 139.12673,11.0620969 C139.12673,14.8386349 141.416999,17.4703282 144.901674,17.4703282 C146.631693,17.4703282 147.874502,16.8124049 148.678212,15.6185784 L148.678212,17.2265778 L151.480617,17.2265778 L151.480617,0.170422433 L148.678212,0.170422433 L148.678212,6.48126947 L148.678212,6.48155931 Z M145.315847,15.0826752 C143.293674,15.0826752 141.929136,13.4259836 141.929136,11.0623868 C141.929136,8.67444388 143.293674,7.01775234 145.315847,7.01775234 C147.338019,7.01775234 148.678212,8.67444388 148.678212,11.0623868 C148.678212,13.4259836 147.338309,15.0826752 145.315847,15.0826752 Z" id="Shape" fill="#0033A1"></path>
                <path d="M165.46743,14.5954641 L163.688718,13.3526556 C162.957467,14.4490979 161.788276,15.1803493 160.350699,15.1803493 C158.49866,15.1803493 156.915006,13.9621767 156.792986,11.7936381 L165.686834,11.7936381 C166.247084,7.99217448 163.981161,4.63009927 160.131005,4.63009927 C156.622564,4.63009927 154.088544,7.31019491 154.088544,11.1357148 C154.088544,15.0099268 156.841968,17.4709079 160.302007,17.4709079 C162.641258,17.4709079 164.468372,16.3254837 165.46772,14.5957539 L165.46743,14.5954641 Z M160.082603,6.82269401 C161.76393,6.82269401 162.933411,8.01681038 163.104123,9.79523223 L156.89066,9.79523223 C157.061083,7.99188465 158.376929,6.82269401 160.082603,6.82269401 L160.082603,6.82269401 Z" id="Shape" fill="#0033A1"></path>
                <rect id="Rectangle" fill="#0033A1" x="128.69821" y="0.170422433" width="2.80211579" height="17.0561554"></rect>
                <path d="M107.036302,13.8642127 C107.036302,16.1788276 108.27911,17.4703282 110.520687,17.4703282 C112.031302,17.4703282 113.103688,16.9341352 113.810014,16.1301355 L112.348381,14.5951743 C112.006956,14.9116731 111.592783,15.1310775 111.05659,15.1310775 C110.276936,15.1310775 109.838418,14.5708282 109.838418,13.5714803 L109.838418,7.35830737 L113.054706,7.35830737 L113.054706,4.97036447 L109.838418,4.97036447 L109.838418,1.0234041 L107.036302,2.2415767 L107.036302,4.97094413 L105.087168,4.97094413 L105.087168,7.35888704 L107.036302,7.35888704 L107.036302,13.8645026 L107.036302,13.8642127 Z" id="Path" fill="#0033A1"></path>
                <path d="M120.243171,7.06615463 C121.753786,7.06615463 122.753134,8.06521267 122.826172,9.67350192 L119.585827,10.2337512 C116.807768,10.7212521 115.467865,11.8904427 115.467865,13.8642127 C115.467865,16.0327512 117.075864,17.4703282 119.390479,17.4703282 C121.04775,17.4703282 122.314615,16.7150207 123.045287,15.3504818 L123.045287,17.2265778 L125.603652,17.2265778 L125.603652,9.62451996 C125.603652,6.65198174 123.630172,4.62980943 120.364901,4.62980943 C117.538729,4.62980943 115.516557,6.35953916 115.053402,8.84515615 L117.270633,9.50278965 C117.758133,7.91913629 118.635171,7.06644446 120.243171,7.06644446 L120.243171,7.06615463 Z M122.826172,12.061155 C122.826172,14.0105789 121.656692,15.4971379 120.024346,15.4971379 C119.000652,15.4971379 118.269691,14.9122527 118.269691,13.9375408 C118.269691,12.8895008 119.07398,12.3779436 120.487211,12.1098471 L122.826462,11.6472719 L122.826462,12.061155 L122.826172,12.061155 Z" id="Shape" fill="#0033A1"></path>
                <path d="M248.299109,23.7840736 L248.299109,35.0939787 L254.771973,35.0939787 L254.771973,23.7840736 L248.299109,23.7840736 Z M252.339396,31.1994783 L251.280342,28.9210927 L250.81284,28.9210927 L250.81284,31.1994783 L249.495254,31.1994783 L249.495254,25.0816607 L251.838852,25.0816607 C253.006594,25.0816607 253.757554,25.9100065 253.757554,26.9977538 C253.757554,27.8255199 253.316137,28.455909 252.590392,28.7237157 L253.790595,31.1994783 L252.339396,31.1994783 L252.339396,31.1994783 Z" id="Shape" fill="#1D1D1B"></path>
                <polygon id="Path" fill="#0033A1" points="252.589812 28.7240055 252.590682 28.7237157 252.589812 28.7222665"></polygon>
                <path d="M251.588436,26.2633143 L250.81284,26.2633143 L250.81284,27.7478444 L251.588436,27.7478444 C252.130425,27.7478444 252.423158,27.4368524 252.423158,27.0055793 C252.423158,26.5488008 252.131295,26.2633143 251.588436,26.2633143 L251.588436,26.2633143 Z" id="Path" fill="#1D1D1B"></path>
                <polygon id="Path" fill="#0033A1" points="252.423448 27.0058691 252.423448 27.0049996 252.423448 27.0055793"></polygon>
            </g>
        </g>
    </g>
</svg>